/vscmnt/brussel_pixiu_data/_data_brussel/112/vsc11236/PredSimResults/SUBJ09opt3D/weighted-LRposFixed/trackIG/worker_02.mot
version=1
nRows=5
nColumns=50
inDegrees=yes
endheader
                time	         pelvis_tilt	         pelvis_list	     pelvis_rotation	           pelvis_tx	           pelvis_ty	           pelvis_tz	       hip_flexion_r	     hip_adduction_r	      hip_rotation_r	        knee_angle_r	       ankle_angle_r	         mtp_angle_r	       hip_flexion_l	     hip_adduction_l	      hip_rotation_l	        knee_angle_l	       ankle_angle_l	         mtp_angle_l	    lumbar_extension	      lumbar_bending	     lumbar_rotation	 ercspn_r/activation	 intobl_r/activation	 extobl_r/activation	    abd_r/activation	    add_r/activation	hamstrings_r/activation	bifemsh_r/activation	glut_max_r/activation	iliopsoas_r/activation	rect_fem_r/activation	  vasti_r/activation	gastroc_r/activation	 soleus_r/activation	tib_ant_r/activation	 ercspn_l/activation	 intobl_l/activation	 extobl_l/activation	    abd_l/activation	    add_l/activation	hamstrings_l/activation	bifemsh_l/activation	glut_max_l/activation	iliopsoas_l/activation	rect_fem_l/activation	  vasti_l/activation	gastroc_l/activation	 soleus_l/activation	tib_ant_l/activation	
          0.00000000	         -4.10315008	         -0.89961659	          7.76606300	          0.00000000	          0.99131346	         -0.00175241	         28.44321838	         -1.22196180	         -7.95027389	         -5.30136102	          3.91597371	          0.22852744	        -13.09981387	         -2.24432391	         -5.14574039	        -10.39696240	          4.57451855	         36.31307294	        -13.50054949	         -1.72703188	         -7.76639623	          0.02869572	          0.17707244	          0.04003789	          0.01000002	          0.23515042	          0.05969109	          0.09933583	          0.03746005	          0.13226684	          0.01612325	          0.01000001	          0.01000000	          0.00999999	          0.32080599	          0.01000000	          0.00999999	          0.01000000	          0.03493772	          0.01000000	          0.01628287	          0.26400525	          0.01482331	          0.03283592	          0.01000001	          0.01000000	          0.32895172	          0.23809164	          0.01375231	
          0.01302332	         -4.16338705	         -1.00527214	          7.76426313	          0.01983086	          0.98903970	         -0.00097636	         28.41024734	         -1.02392426	         -8.22894161	         -6.96481154	          3.42202550	          0.21924070	        -13.73105970	         -2.56985579	         -5.59741947	        -11.12195187	          3.50680774	         37.94978244	        -12.97167445	         -1.26465485	         -7.93104309	          0.02357799	          0.14549251	          0.03289734	          0.00999999	          0.20103305	          0.05741361	          0.08161981	          0.12063639	          0.10867775	          0.01324775	          0.01000003	          0.01585182	          0.01563975	          0.33283077	          0.02818945	          0.01000000	          0.01000002	          0.02870676	          0.01217054	          0.03077084	          0.21692157	          0.01217965	          0.02697985	          0.01000000	          0.01000000	          0.30132564	          0.21721471	          0.01129966	
          0.02604665	         -4.20048180	         -1.14697097	          7.73430652	          0.04011598	          0.98695062	         -0.00015855	         28.23311710	         -0.82563370	         -8.44101341	         -8.61896357	          2.95194394	          0.20958930	        -14.21033306	         -2.95578664	         -6.07308236	        -12.18820641	          2.32026129	         39.56926706	        -12.40693206	         -0.75592841	         -8.05888420	          0.01937300	          0.11954469	          0.02703027	          0.09447176	          0.21389500	          0.05885637	          0.06706336	          0.12567999	          0.08929565	          0.01088509	          0.01000000	          0.01302473	          0.01285048	          0.38668493	          0.02316202	          0.00999999	          0.01000000	          0.02358706	          0.01000001	          0.02528303	          0.17823479	          0.01000748	          0.06861106	          0.01000001	          0.01000000	          0.26404670	          0.19051424	          0.00999999	
          0.03906997	         -4.21904342	         -1.28967159	          7.66999859	          0.06047447	          0.98529030	          0.00076199	         28.00654356	         -0.62328839	         -8.69478061	        -10.18835128	          2.31226141	          0.18352442	        -14.43177778	         -3.37426868	         -6.56328892	        -13.73447382	          0.99552503	         41.07805449	        -11.85419542	         -0.24715395	         -8.14883832	          0.02993569	          0.09822452	          0.02220957	          0.14635751	          0.23918847	          0.05725620	          0.05510296	          0.13877909	          0.07337024	          0.01000000	          0.03991874	          0.01070184	          0.01055867	          0.41821573	          0.04879245	          0.00999999	          0.00999999	          0.01938044	          0.01000001	          0.03322232	          0.14644757	          0.00999999	          0.07910821	          0.01000000	          0.01000000	          0.21695537	          0.15653703	          0.00999999	
          0.05209330	         -4.22095181	         -1.43764644	          7.57928244	          0.08059568	          0.98423746	          0.00178215	         27.82963760	         -0.41770882	         -8.94629560	        -11.89335418	          1.92306303	          0.14693407	        -14.30695734	         -3.84100812	         -7.06079523	        -15.87909932	         -0.42533351	         42.26461284	        -11.34554387	          0.26712026	         -8.20277232	          0.02684296	          0.08070670	          0.01824861	          0.18588807	          0.24535020	          0.05726321	          0.04527564	          0.16172725	          0.06028505	          0.01000000	          0.15441781	          0.01000000	          0.01000000	          0.43268931	          0.08260691	          0.01000000	          0.00999999	          0.01592404	          0.08130474	          0.04364914	          0.12032943	          0.00999999	          0.08475100	          0.01000000	          0.00999999	          0.17826252	          0.12861948	          0.00999999	
